<?xml version="1.0" standalone="no"?>
<!DOCTYPE svg PUBLIC "-//W3C//DTD SVG 20010904//EN"
 "http://www.w3.org/TR/2001/REC-SVG-20010904/DTD/svg10.dtd">
<svg version="1.0" xmlns="http://www.w3.org/2000/svg"
 width="1024.000000pt" height="1024.000000pt" viewBox="0 0 1024.000000 1024.000000"
 preserveAspectRatio="xMidYMid meet">

<g transform="translate(0.000000,1024.000000) scale(0.100000,-0.100000)"
fill="#000000" stroke="none">
<path d="M4827 9246 c-46 -17 -99 -56 -132 -99 -50 -67 -55 -99 -55 -378 l0
-259 -64 64 c-75 75 -193 138 -301 161 -152 32 -175 19 -175 -96 0 -153 55
-286 164 -395 97 -97 223 -154 341 -154 l35 0 0 -269 0 -269 -67 67 c-104 104
-259 171 -395 171 -71 0 -78 -10 -78 -110 0 -233 147 -449 354 -520 32 -11 87
-23 122 -26 l64 -7 0 -263 0 -264 -62 63 c-98 97 -222 154 -379 172 -50 6 -60
4 -78 -14 -18 -18 -21 -33 -21 -108 0 -203 120 -400 294 -482 67 -32 145 -51
206 -51 l40 0 0 -365 0 -365 -236 0 -236 0 -34 -34 c-28 -28 -34 -41 -34 -78
0 -24 7 -54 16 -67 32 -45 67 -51 304 -51 l220 0 0 -255 0 -255 -265 0 c-289
0 -310 -3 -369 -58 -58 -55 -66 -88 -66 -294 l0 -188 -230 0 c-126 0 -230 3
-230 6 0 3 -25 119 -55 258 -30 138 -88 411 -130 606 -185 864 -333 1543 -342
1566 -4 12 77 14 501 14 l506 0 0 115 0 115 -532 2 -533 3 -27 125 c-82 373
-104 432 -195 530 -64 70 -118 104 -204 131 -55 17 -97 19 -454 19 -232 0
-404 -4 -419 -10 -56 -21 -82 -110 -51 -170 31 -59 36 -60 460 -60 360 0 388
-1 423 -19 50 -26 97 -77 121 -131 17 -41 235 -1004 390 -1725 87 -403 150
-695 230 -1062 39 -177 71 -326 71 -332 0 -5 -21 -19 -46 -30 -64 -29 -182
-151 -218 -225 -42 -87 -61 -211 -47 -306 26 -179 145 -324 321 -391 48 -18
110 -19 2022 -19 l1973 -1 33 36 c49 53 42 133 -17 172 -25 17 -134 18 -1971
23 l-1945 5 -40 22 c-112 60 -162 186 -125 318 10 36 28 64 65 101 91 92 -85
84 1892 84 1552 0 1752 2 1821 16 288 59 546 288 651 580 17 47 55 207 85 357
56 277 294 1449 341 1677 29 141 33 197 15 229 -27 51 -32 51 -715 51 l-635 0
0 -115 0 -115 550 0 c303 0 550 -1 550 -3 0 -3 -111 -550 -305 -1507 -48 -234
-96 -452 -106 -485 -48 -144 -170 -294 -304 -373 -86 -51 -201 -82 -302 -82
l-73 0 0 179 c0 236 -17 283 -122 335 l-52 26 -263 0 -263 0 0 260 0 259 25
37 c14 20 25 49 25 63 0 15 -11 43 -25 63 l-25 37 0 375 0 376 58 0 c123 0
250 59 345 159 34 37 74 89 89 116 39 73 68 188 68 270 0 118 -24 132 -174
100 -134 -28 -269 -109 -346 -206 l-40 -51 0 281 0 281 38 0 c63 0 167 27 231
59 78 40 177 138 218 216 61 117 91 287 63 361 l-11 27 -88 -6 c-164 -10 -320
-94 -423 -227 l-28 -35 0 283 0 282 53 0 c266 0 508 259 507 544 0 115 -28
131 -170 102 -137 -29 -272 -109 -349 -207 l-40 -49 -3 282 -3 283 -29 58
c-32 66 -104 130 -164 147 -59 16 -937 13 -985 -4z m975 -205 l33 -29 3 -197
4 -197 -47 32 c-91 63 -205 100 -305 100 -63 0 -74 -18 -72 -118 4 -209 118
-403 285 -487 38 -19 84 -37 103 -41 l34 -6 0 -214 c0 -118 -2 -214 -5 -214
-2 0 -32 18 -66 40 -79 51 -142 71 -246 77 -76 5 -82 4 -93 -17 -30 -56 0
-252 55 -358 63 -123 176 -221 295 -257 l60 -18 0 -209 c0 -191 -5 -230 -25
-198 -9 15 -120 70 -174 86 -25 7 -78 17 -117 20 -69 6 -72 6 -88 -19 -37 -56
-17 -213 44 -342 63 -135 174 -235 302 -273 l58 -17 0 -300 -1 -300 -183 186
c-101 103 -193 192 -205 199 -14 7 -38 9 -62 5 -53 -9 -89 -52 -89 -108 0 -40
5 -46 180 -222 99 -99 180 -184 180 -188 0 -4 -190 -6 -422 -5 l-423 3 -3 365
-2 365 66 19 c201 58 352 256 369 485 7 83 -2 129 -27 145 -12 7 -43 6 -104
-2 -92 -14 -208 -60 -271 -108 l-33 -25 0 219 0 219 62 19 c111 33 217 116
284 219 68 108 111 298 85 378 -12 36 -14 37 -64 37 -98 0 -233 -44 -320 -104
-21 -14 -40 -26 -42 -26 -3 0 -5 98 -5 219 l0 219 38 7 c64 12 159 64 219 119
106 98 166 230 178 388 9 119 -1 133 -86 132 -100 -1 -233 -44 -305 -99 -18
-14 -35 -25 -39 -25 -3 0 -5 90 -3 201 l3 201 28 24 28 24 449 0 450 0 32 -29z
m-1424 -522 c73 -36 144 -110 191 -199 l34 -63 -39 7 c-104 19 -202 93 -255
192 -42 78 -45 94 -16 94 13 0 51 -14 85 -31z m692 18 c0 -29 -63 -138 -103
-177 -41 -42 -131 -100 -154 -100 -16 0 -6 63 19 115 30 66 74 112 140 144 66
33 98 39 98 18z m620 -15 c72 -34 142 -130 166 -226 7 -28 6 -29 -22 -22 -45
11 -121 64 -159 110 -38 47 -87 145 -78 159 6 10 45 2 93 -21z m695 -9 c-55
-131 -151 -219 -282 -258 -37 -11 -29 22 27 108 70 105 174 185 243 187 l27 0
-15 -37z m5 -943 c-16 -55 -63 -130 -108 -171 -49 -46 -161 -102 -191 -97 -20
3 -19 5 7 56 52 102 152 196 239 228 57 20 63 18 53 -16z m-2012 -11 c70 -34
150 -116 188 -190 29 -58 29 -59 4 -59 -38 0 -127 41 -170 77 -46 39 -100 117
-118 171 -10 30 -9 32 12 32 13 0 50 -14 84 -31z m686 9 c-16 -53 -58 -123
-99 -163 -43 -44 -143 -107 -156 -100 -10 7 8 90 30 132 38 74 145 152 209
153 20 0 22 -4 16 -22z m621 -2 c64 -29 126 -99 153 -172 22 -55 27 -84 16
-84 -3 0 -29 11 -59 25 -67 32 -153 123 -182 193 -30 71 -15 79 72 38z m-1300
-965 c27 -14 67 -44 89 -66 45 -46 116 -151 116 -172 0 -39 -171 37 -226 100
-39 45 -96 155 -88 169 8 12 51 -1 109 -31z m680 29 c3 -6 -8 -40 -26 -75 -36
-74 -118 -157 -184 -186 l-40 -18 -3 30 c-3 31 34 119 65 154 31 35 91 77 130
91 47 16 50 16 58 4z m632 -22 c69 -32 135 -124 159 -222 7 -28 6 -29 -22 -22
-35 9 -86 40 -131 79 -39 34 -103 144 -103 176 0 18 4 20 28 15 15 -3 46 -15
69 -26z m693 18 c0 -41 -71 -153 -126 -199 -39 -33 -122 -75 -164 -84 l-33 -6
34 64 c49 91 131 176 204 211 67 31 85 34 85 14z m-896 -1581 c-93 -96 -174
-185 -181 -198 -17 -30 -16 -72 2 -107 l16 -30 -261 0 -260 0 0 255 0 255 423
2 c232 2 424 2 426 1 2 -1 -72 -81 -165 -178z m343 -332 c-2 -2 -81 -2 -174
-1 l-171 3 172 184 171 184 3 -183 c1 -101 1 -185 -1 -187z m657 -229 c13 -13
16 -42 16 -165 l0 -149 -1185 0 -1185 0 0 153 c0 106 4 157 12 165 9 9 283 12
1169 12 1039 0 1159 -2 1173 -16z"/>
<path d="M3829 3001 c-129 -41 -248 -141 -303 -253 -134 -276 -29 -589 242
-720 82 -40 92 -42 198 -46 173 -7 272 30 393 143 147 139 201 336 144 520
-54 175 -188 308 -362 359 -75 22 -238 21 -312 -3z m265 -231 c203 -76 254
-341 94 -485 -117 -105 -305 -95 -408 22 -104 119 -93 307 24 410 83 73 186
92 290 53z"/>
<path d="M6171 3004 c-83 -22 -150 -63 -221 -134 -105 -105 -150 -216 -150
-376 0 -64 6 -112 20 -156 51 -164 192 -298 361 -343 68 -19 209 -19 275 -1
174 46 317 189 369 370 24 82 17 239 -14 318 -61 157 -198 282 -356 324 -65
18 -215 17 -284 -2z m278 -249 c50 -28 115 -100 139 -157 22 -53 25 -122 8
-183 -25 -83 -108 -167 -190 -190 -142 -41 -288 27 -349 164 -30 66 -29 170 2
233 28 58 107 131 164 152 64 24 162 16 226 -19z"/>
</g>
</svg>
