<?xml version="1.0" standalone="no"?>
<!DOCTYPE svg PUBLIC "-//W3C//DTD SVG 20010904//EN"
 "http://www.w3.org/TR/2001/REC-SVG-20010904/DTD/svg10.dtd">
<svg version="1.0" xmlns="http://www.w3.org/2000/svg"
 width="934.000000pt" height="993.000000pt" viewBox="0 0 934.000000 993.000000"
 preserveAspectRatio="xMidYMid meet">

<g transform="translate(0.000000,993.000000) scale(0.100000,-0.100000)"
fill="#000000" stroke="none">
<path d="M4485 9315 c-5 -1 -42 -12 -82 -24 -39 -12 -91 -35 -115 -51 -23 -16
-50 -30 -59 -30 -17 0 -71 -53 -89 -90 -24 -46 -13 -118 28 -187 34 -58 40
-63 72 -63 35 0 132 -44 204 -93 44 -31 45 -31 82 -17 21 8 31 7 44 -5 26 -24
43 -18 90 31 24 25 54 50 67 55 20 7 23 15 23 60 0 28 7 76 16 106 16 54 16
56 -7 87 -13 17 -38 53 -56 80 -61 90 -83 110 -132 122 -25 6 -53 14 -61 17
-8 3 -19 4 -25 2z"/>
<path d="M3220 9183 c-46 -15 -148 -68 -166 -87 -65 -66 -52 -226 32 -378 12
-23 19 -25 53 -21 32 4 47 0 85 -26 94 -65 218 -85 249 -41 7 10 30 26 52 36
39 18 40 21 43 74 2 30 9 62 16 70 36 40 22 110 -32 167 -16 18 -36 53 -43 78
-16 54 -44 75 -103 79 -23 1 -58 11 -77 23 -37 22 -85 34 -109 26z"/>
<path d="M1842 8520 c-17 -14 -21 -25 -16 -44 6 -24 3 -26 -23 -26 -31 0 -63
-26 -63 -51 0 -8 -9 -22 -20 -32 -22 -19 -26 -60 -11 -117 6 -19 12 -71 15
-115 9 -133 17 -187 38 -260 25 -87 39 -309 27 -425 -24 -248 -32 -670 -30
-1608 2 -924 8 -1201 31 -1417 30 -290 53 -522 58 -606 8 -109 -1 -319 -17
-424 -6 -38 -17 -144 -25 -235 -8 -91 -20 -235 -28 -320 -15 -175 -14 -540 1
-675 17 -149 25 -618 12 -725 -26 -217 -43 -410 -42 -490 1 -73 4 -87 22 -102
12 -10 28 -18 35 -18 8 0 23 -6 34 -12 16 -10 24 -10 40 0 30 19 57 14 78 -13
11 -14 24 -25 28 -25 14 1 60 52 77 86 24 46 41 58 66 43 17 -11 23 -10 40 5
17 16 23 17 36 6 9 -8 16 -27 15 -44 -1 -17 -2 -37 -1 -43 2 -23 47 -14 89 17
28 20 54 30 77 30 21 0 35 5 36 13 2 44 11 93 20 109 6 12 8 40 4 69 -6 40 -3
55 14 83 26 42 26 58 0 82 -22 19 -22 24 -5 429 4 111 -14 322 -45 522 -62
394 -64 624 -9 1283 23 272 25 307 18 387 -4 45 -8 99 -10 120 l-3 38 81 -4
c66 -2 88 1 120 17 33 17 54 19 146 16 59 -2 136 1 170 7 35 5 80 13 100 16
21 3 42 11 49 19 6 8 16 14 21 14 6 0 24 6 41 14 139 63 160 67 326 70 89 2
138 9 211 29 195 54 302 71 404 64 52 -4 111 -13 132 -21 118 -45 194 -60 426
-85 86 -9 108 -21 108 -59 0 -14 16 -54 35 -89 19 -35 35 -70 35 -77 0 -8 10
-20 23 -29 12 -8 39 -30 59 -48 46 -44 127 -105 203 -155 33 -21 89 -68 125
-103 36 -35 106 -96 155 -136 133 -107 245 -209 266 -244 10 -17 38 -45 63
-63 44 -32 221 -229 261 -290 11 -17 41 -54 66 -82 25 -28 74 -94 109 -146 35
-52 99 -140 141 -195 42 -55 84 -115 93 -134 10 -18 32 -48 49 -65 18 -18 64
-79 102 -136 76 -113 126 -183 153 -215 31 -34 158 -227 187 -283 15 -29 31
-55 37 -58 5 -3 13 -16 18 -27 6 -12 21 -40 35 -62 14 -22 32 -56 40 -75 9
-19 40 -82 69 -140 30 -58 59 -123 66 -145 18 -55 48 -112 84 -160 37 -48 45
-55 61 -48 7 2 32 -19 55 -46 46 -55 60 -62 60 -32 0 27 15 34 30 16 18 -21
57 -18 81 6 21 21 21 21 87 3 37 -10 77 -24 89 -32 19 -12 23 -11 33 7 8 16
17 20 34 15 27 -6 49 21 61 76 11 50 36 89 59 92 20 3 21 9 20 93 -2 116 -21
169 -191 523 -20 40 -99 168 -177 285 -79 117 -159 237 -179 267 -94 141 -246
354 -350 490 -39 52 -92 124 -117 160 -72 103 -197 268 -275 360 -81 96 -156
196 -199 266 -47 76 -260 288 -415 413 -145 117 -160 129 -222 168 -19 11 -52
35 -74 52 -69 55 -123 95 -159 121 -20 14 -36 28 -36 31 0 6 63 18 245 44 50
7 113 20 140 30 28 10 86 31 130 47 44 16 91 34 105 40 38 18 188 116 195 129
4 5 26 24 48 40 113 82 346 306 405 390 56 80 135 180 179 228 18 19 48 65 68
101 19 37 41 73 50 80 19 16 60 105 95 205 29 85 54 140 75 165 7 8 16 33 20
54 6 37 64 186 114 298 35 76 59 377 41 493 -16 98 -57 228 -95 305 -63 125
-103 225 -115 285 -7 33 -25 101 -41 150 -16 50 -39 126 -50 170 -11 44 -26
86 -32 93 -6 7 -14 57 -18 110 -5 65 -15 115 -30 152 -36 86 -113 211 -154
250 -20 19 -56 62 -80 95 -49 67 -226 238 -283 272 -28 17 -52 23 -101 23 -55
0 -68 -4 -100 -29 -21 -16 -50 -33 -65 -37 -19 -4 -33 -18 -42 -41 -14 -33
-50 -80 -86 -112 -13 -11 -18 -30 -18 -63 0 -51 -15 -68 -64 -68 -16 0 -27 -7
-31 -21 -4 -11 -20 -25 -35 -31 -22 -7 -37 -27 -65 -84 -21 -42 -47 -87 -60
-102 -12 -15 -27 -48 -34 -75 -10 -42 -32 -79 -102 -170 -12 -15 -33 -50 -48
-77 -37 -68 -174 -243 -246 -315 -90 -89 -168 -145 -285 -202 -118 -57 -194
-81 -360 -114 -167 -32 -259 -41 -400 -35 -193 8 -480 73 -550 125 -14 10 -54
28 -90 41 -36 12 -87 34 -115 47 -27 13 -75 34 -105 45 -157 59 -445 258 -610
421 -81 80 -170 182 -170 194 0 6 -10 18 -21 29 -12 10 -37 44 -56 74 -20 30
-56 78 -82 106 -61 67 -158 206 -188 271 -13 29 -42 71 -64 94 -21 22 -39 45
-39 49 0 18 -39 31 -59 21 -14 -8 -22 -7 -30 3 -6 7 -8 16 -5 19 14 14 -8 27
-27 16 -16 -8 -23 -7 -33 6 -9 12 -21 14 -55 9 -23 -4 -45 -13 -48 -20 -9 -23
-24 -16 -65 31 -44 50 -69 56 -106 25z m4581 -928 c8 -20 24 -75 36 -122 29
-111 63 -218 156 -485 127 -365 133 -387 144 -481 9 -82 7 -102 -15 -198 -23
-105 -74 -257 -114 -344 -11 -23 -20 -53 -20 -65 0 -23 -33 -92 -74 -152 -14
-20 -28 -49 -31 -66 -4 -16 -37 -63 -73 -104 -99 -112 -137 -157 -158 -190
-10 -16 -41 -58 -69 -91 -27 -34 -61 -78 -75 -98 -30 -44 -154 -154 -187 -167
-13 -5 -48 -20 -77 -34 -29 -14 -62 -25 -73 -25 -11 0 -30 -11 -42 -24 -13
-14 -61 -37 -109 -54 -105 -36 -335 -89 -417 -96 -33 -3 -98 -12 -145 -21
-104 -20 -479 -26 -501 -9 -20 15 -53 24 -134 35 -362 46 -735 33 -990 -35
-33 -9 -98 -16 -147 -16 -188 0 -487 -86 -641 -185 -39 -25 -88 -50 -108 -55
-20 -6 -42 -17 -49 -24 -6 -8 -26 -18 -43 -22 -18 -3 -45 -17 -60 -30 -76 -63
-86 -26 -117 411 -5 77 -9 311 -9 520 1 209 -4 459 -10 555 -6 96 -13 274 -16
395 -4 121 -10 339 -14 485 -9 313 -8 676 2 686 8 8 26 -10 70 -69 87 -116
256 -261 447 -382 44 -27 88 -60 100 -72 11 -13 54 -46 96 -75 41 -29 88 -62
104 -73 16 -11 67 -42 115 -69 47 -27 88 -53 91 -58 3 -5 45 -28 92 -52 48
-23 125 -63 172 -88 159 -86 395 -177 550 -212 41 -9 91 -21 111 -26 49 -13
412 -13 518 1 258 31 324 51 571 171 85 42 180 87 210 100 30 14 75 42 100 63
25 21 67 52 95 70 75 48 238 213 289 291 24 38 64 89 89 114 24 25 48 56 52
70 4 14 13 32 20 40 7 8 29 45 49 82 20 36 43 72 51 78 8 7 15 19 15 27 0 8
11 29 24 46 13 18 36 57 52 87 51 100 71 108 97 42z"/>
<path d="M5020 5840 c-14 -5 -50 -18 -80 -29 -30 -12 -62 -21 -72 -21 -9 0
-34 -21 -55 -47 -21 -26 -46 -57 -57 -68 -50 -54 -62 -162 -25 -222 18 -28 20
-43 14 -91 -8 -72 -1 -80 86 -88 52 -5 68 -11 85 -31 19 -22 24 -23 42 -12 28
18 50 -2 54 -49 4 -49 32 -54 75 -12 17 17 45 35 62 41 17 6 31 14 31 19 0 4
13 21 29 36 30 30 71 112 71 143 0 9 7 26 15 37 10 13 14 45 15 100 0 80 0 82
-29 93 -23 10 -31 23 -47 77 -17 59 -20 64 -51 70 -18 3 -36 10 -39 15 -4 7
-94 51 -98 48 0 0 -12 -4 -26 -9z"/>
<path d="M3595 5731 c-82 -25 -119 -45 -147 -81 -12 -17 -33 -42 -45 -57 -15
-17 -23 -39 -23 -65 0 -21 -5 -47 -12 -57 -9 -15 -7 -26 10 -55 12 -21 22 -48
22 -61 0 -25 17 -35 59 -35 32 0 138 -48 190 -85 26 -19 37 -22 53 -14 14 8
25 7 43 -5 30 -20 46 -14 68 27 10 19 38 44 62 57 25 14 45 31 45 40 0 8 9 32
20 53 24 45 26 89 4 122 -9 13 -13 32 -10 43 4 12 -2 26 -19 42 -14 13 -25 33
-25 45 0 73 -172 123 -295 86z"/>
</g>
</svg>
